<svg xmlns="http://www.w3.org/2000/svg" width="250" height="250" viewBox="217.672 231.401 34.84 19"><path d="M0,0V4.42a5.06,5.06,0,0,1,5,5,5,5,0,0,1-5,5C0,15.74,0,19,0,19H26.17L9.2,0Z" class="cls-2" transform="matrix(1, 0, 0, 1, 217.67234802246094, 231.4011993408203)" style="fill:#16c0de;mix-blend-mode:multiply"/><path d="M34.81,4.61c0-1.34,0-4.61,0-4.61H9.2l17,19h8.64V14.59a5.06,5.06,0,0,1-5-5A5,5,0,0,1,34.81,4.61Z" class="cls-3" transform="matrix(1, 0, 0, 1, 217.67234802246094, 231.4011993408203)" style="fill:#1b92c1"/></svg>