<svg xmlns="http://www.w3.org/2000/svg" width="34" height="34" fill="none" viewBox="0 0 34 34"><path fill="#000" d="M28.9387 16.8464L28.904 17.5087C28.904 17.5087 28.4706 19.0046 28.4706 19.7169C28.4706 20.4292 28.904 23.5634 28.904 23.5634L28.4706 24.2757C27.8687 26.009 26.7851 26.84 26.7851 26.84C22.5954 29.6892 19.4411 29.8792 19.4411 29.8792C18.9595 30.1641 17.7074 30.4015 17.2981 30.2353C16.8887 30.0691 14.4808 29.8792 14.0956 29.9979C13.6862 30.1166 12.5305 29.9979 12.5305 29.9979C6.7997 27.9322 6.10142 25.1542 6.10142 25.1542C5.69208 24.3232 5.45129 23.3734 5.45129 23.3734C5.45129 23.3734 5.57168 23.0885 5.69208 22.8985C5.81247 22.7086 5.86063 19.3607 5.86063 19.3607L5.42721 19.0996C5.74024 18.8146 5.86063 17.6275 5.86063 17.6275L5.61984 16.9864C5.98102 16.6777 6.10142 15.633 6.10142 15.633C5.23458 14.0897 5.42721 11.6915 5.42721 11.6915C3.66946 9.03226 4.03064 3.47625 4.03064 3.47625C5.76431 2.40778 11.0617 8.81857 11.0617 8.81857C11.471 9.22221 13.5177 10.1957 13.5177 10.1957C15.0828 10.7181 19.8745 10.2669 19.8745 10.2669C20.5487 10.077 22.475 8.53364 22.475 8.53364C25.6775 2.76394 28.6873 3.00137 28.6873 3.00137C31.649 5.80312 28.5669 14.802 28.5669 14.802C28.7596 15.0869 28.7596 16.1791 28.7596 16.1791L28.9387 16.8464Z"/><path fill="#000" d="M28.9387 16.8464L28.904 17.5087C28.904 17.5087 28.4706 19.0046 28.4706 19.7169C28.4706 20.4292 28.904 23.5634 28.904 23.5634L28.4706 24.2757C27.8687 26.009 26.7851 26.84 26.7851 26.84C22.5954 29.6892 19.4411 29.8792 19.4411 29.8792C18.9595 30.1641 17.7074 30.4015 17.2981 30.2353C16.8887 30.0691 14.4808 29.8792 14.0956 29.9979C13.6862 30.1166 12.5305 29.9979 12.5305 29.9979C6.7997 27.9322 6.10142 25.1542 6.10142 25.1542C5.69208 24.3232 5.45129 23.3734 5.45129 23.3734C5.45129 23.3734 5.57168 23.0885 5.69208 22.8985C5.81247 22.7086 5.86063 19.3607 5.86063 19.3607L5.42721 19.0996C5.74024 18.8146 5.86063 17.6275 5.86063 17.6275L5.61984 16.9864C5.98102 16.6777 6.10142 15.633 6.10142 15.633C5.23458 14.0897 5.42721 11.6915 5.42721 11.6915C3.66946 9.03226 4.03064 3.47625 4.03064 3.47625C5.76431 2.40778 11.0617 8.81857 11.0617 8.81857C11.471 9.22221 13.5177 10.1957 13.5177 10.1957C15.0828 10.7181 19.8745 10.2669 19.8745 10.2669C20.5487 10.077 22.475 8.53364 22.475 8.53364C25.6775 2.76394 28.6873 3.00137 28.6873 3.00137C31.649 5.80312 28.5669 14.802 28.5669 14.802C28.7596 15.0869 28.7596 16.1791 28.7596 16.1791L28.9387 16.8464Z"/><path fill="#4A5568" d="M4.36862 8.84241C4.36862 8.84241 4.24823 4.7585 4.53718 4.3786C4.53718 4.3786 5.88559 3.76127 9.78636 9.07984H8.9436L9.13623 9.67344C9.13623 9.67344 8.00453 10.4095 7.98045 11.0743C7.98045 11.0743 9.11215 10.9556 9.42518 11.4067C9.42518 11.4067 8.6065 13.4012 8.07676 13.0925L8.05268 13.7573C8.05268 13.7573 7.11361 14.066 6.92098 13.7573C6.92098 13.7573 7.25808 14.4222 7.52295 14.4934C7.52295 14.4934 6.63203 15.7993 5.47625 12.9026C5.47625 12.9026 5.45217 11.9291 5.47625 11.6679C5.42809 11.6679 4.58533 10.3383 4.36862 8.84241Z"/><path fill="#4A5568" d="M29.9168 8.60494C29.9168 8.60494 29.6519 4.30734 28.4239 3.64252C28.4239 3.64252 26.4495 3.19139 24.5954 6.96663L25.5104 6.80042L24.5954 7.51273L25.5104 7.4415L24.4268 8.08258L25.6067 7.94012L23.8008 9.1273C23.8008 9.1273 24.6195 8.88986 25.0529 8.93735L24.3305 9.38848C24.3305 9.38848 24.8362 9.26976 25.1974 9.38848C25.1974 9.38848 24.3546 9.74464 23.8008 10.172H24.7399L24.0656 10.9318C24.0656 10.9318 23.1025 12.119 25.0288 12.95C26.9551 13.7811 25.9679 14.4934 25.9679 14.4934C25.9679 14.4934 27.0273 15.2532 27.1718 15.7043C27.1718 15.7043 28.9296 13.6149 29.4352 11.7391C29.4352 11.6679 29.8686 9.29351 29.9168 8.60494Z"/><path fill="#4A5568" d="M23.2207 18.5536C23.2207 18.5536 22.2335 17.6276 20.1627 18.0787C18.116 18.5299 18.1642 21.4266 18.1642 21.4266C18.1642 21.4266 19.1755 22.59 21.3907 21.7353C23.606 20.8805 23.2207 18.5536 23.2207 18.5536Z"/><path fill="#4A5568" d="M10.8681 18.411C8.53247 17.5325 8.33984 19.7407 8.33984 19.7407C8.33984 19.7407 8.46024 21.8538 10.1458 22.21C11.8313 22.5662 12.4092 21.7351 12.4092 21.7351C12.4092 21.7351 13.2038 19.2895 10.8681 18.411Z"/><path fill="#4A5568" d="M17.4417 24.0383C17.4417 24.0383 17.4658 23.0173 15.3709 22.9936C13.252 22.9461 13.6132 24.0383 13.6132 24.0383C14.4319 23.6584 15.3228 25.6529 15.5877 26.2939C15.2987 27.03 14.2152 27.4811 14.2152 27.4811C14.9616 27.4099 15.708 27.0775 15.708 27.0775C16.8398 27.3624 17.4899 27.0775 17.4899 27.0775C16.8157 27.03 15.9488 26.5314 15.684 26.3652C15.6358 24.0383 17.4417 24.0383 17.4417 24.0383Z"/><path fill="#fff" d="M10.6536 18.4822C9.64226 18.4822 8.84766 19.3369 8.84766 20.3817C8.84766 21.4264 9.66634 22.2812 10.6536 22.2812C11.6649 22.2812 12.4595 21.4264 12.4595 20.3817C12.4595 19.3369 11.3519 18.4822 10.6536 18.4822Z"/><path fill="#fff" d="M20.5956 18.0549C20.0418 18.0549 19.512 18.2924 19.1268 18.6723L19.1509 18.6485C19.1509 18.6485 19.1268 18.6723 19.0786 18.7198C19.0305 18.7672 18.9823 18.8147 18.9342 18.886C18.8138 19.0284 18.6519 19.3421 18.5985 19.5204C18.545 19.6986 18.5489 19.9307 18.5489 19.9782C18.5489 21.2366 19.6324 21.8777 20.6919 21.8777C21.4865 21.8777 22.6182 21.0229 22.6182 19.9782C22.6423 18.9572 21.6791 18.0549 20.5956 18.0549Z"/><path fill="#000" d="M11.0618 19.9781C10.8932 19.9781 10.7488 19.9069 10.7488 19.8119C10.7488 19.7169 10.8932 19.6457 11.0618 19.6457C11.134 19.6457 11.1822 19.6457 11.2303 19.6694C11.1581 19.5507 11.0618 19.432 10.9655 19.3133C10.9655 19.3133 10.7006 19.0521 10.4117 19.2183C10.4117 19.3845 10.3394 19.527 10.2672 19.527C10.219 19.527 10.1709 19.4795 10.1468 19.4082C9.80969 19.7169 9.15956 20.5242 10.3394 21.4977C10.3394 21.4977 10.6765 21.7114 10.9896 21.3552C11.3026 20.9991 11.6638 20.5717 11.3026 19.8594C11.3026 19.9306 11.2063 19.9781 11.0618 19.9781Z"/><path fill="#000" d="M21.6074 19.7169C21.5833 19.622 21.5593 19.527 21.5111 19.432C21.487 19.4795 21.4389 19.5032 21.4148 19.5032C21.3425 19.5032 21.2944 19.4558 21.2944 19.3608C21.2944 19.2896 21.3425 19.2421 21.4148 19.2421C21.1258 18.8622 20.6443 18.6485 20.3072 18.7672C20.3072 18.7672 20.1145 18.8622 19.9219 19.0284C19.9219 19.0521 19.9219 19.0759 19.9219 19.0996C19.9219 19.2421 19.8497 19.3608 19.7533 19.3608C19.7052 19.3608 19.6811 19.337 19.657 19.2896C19.5366 19.4795 19.4644 19.7407 19.5366 20.0493C19.7533 20.9041 20.6443 21.0703 20.8128 21.0228C20.9814 20.9991 21.6796 20.358 21.6074 19.7169ZM20.9332 19.6694C20.7887 19.6694 20.6683 19.5982 20.6683 19.5032C20.6683 19.4083 20.7887 19.337 20.9332 19.337C21.0777 19.337 21.1981 19.4083 21.1981 19.5032C21.1981 19.5982 21.0777 19.6694 20.9332 19.6694Z"/><path fill="#FFF96B" d="M25.9407 17.4375C25.9407 17.3426 25.8685 17.2476 25.7721 17.2238C25.6999 17.2001 24.0144 16.4403 20.9805 16.4403C19.2949 16.4403 18.3799 16.7015 17.5853 16.9152C16.9111 17.1051 16.3573 17.2713 15.4423 17.2713C14.5273 17.2713 13.9494 17.1051 13.2993 16.9152C12.5047 16.6777 11.5897 16.4403 9.90421 16.4403C6.87028 16.4403 5.18476 17.2001 5.11252 17.2238C5.01621 17.2713 4.96805 17.3426 4.94397 17.4375L4.84766 18.7197C4.84766 18.8384 4.91989 18.9334 5.01621 18.9809C5.1366 19.0284 5.257 19.1233 5.28107 19.1471C5.30515 19.1946 5.32923 19.337 5.37739 19.527C5.52186 20.1918 5.76265 21.4027 6.07568 22.21C6.43686 23.136 6.82212 23.5397 7.71303 23.9196C8.24277 24.157 9.06145 24.2995 9.88013 24.2995C10.6506 24.2995 11.373 24.157 11.975 23.9196C13.516 23.2547 13.8772 22.2812 14.3588 21.0228C14.431 20.8329 14.4792 20.6667 14.5514 20.5242C14.8885 19.5982 14.9367 19.4795 15.4664 19.4795C15.9721 19.4795 16.0443 19.5982 16.3814 20.5242C16.4296 20.6667 16.5018 20.8329 16.574 21.0228C17.0315 22.2812 17.4168 23.2785 18.9578 23.9196C19.5598 24.1807 20.2822 24.2995 21.0527 24.2995C21.8473 24.2995 22.666 24.157 23.2198 23.9196C24.1107 23.5397 24.496 23.136 24.8571 22.21C25.1702 21.4027 25.411 20.1918 25.5554 19.527C25.6036 19.3133 25.6277 19.1708 25.6517 19.1233C25.6758 19.0759 25.7962 18.9809 25.9166 18.9571C26.037 18.9096 26.0852 18.8147 26.0852 18.696L25.9407 17.4375ZM12.7937 21.7826C12.3121 22.7799 11.3008 23.2785 9.78381 23.2785C8.55579 23.2785 7.80935 23.0173 7.35185 22.4C6.91843 21.8064 6.36462 19.3133 6.7258 18.5297C7.06291 17.7937 8.60395 17.5325 9.95236 17.5325C11.3489 17.5325 13.0345 17.8174 13.3716 18.4348C13.7087 19.0759 13.516 20.3343 12.7937 21.7826ZM23.5087 22.4C23.0512 23.0173 22.3048 23.2785 21.0768 23.2785C19.5598 23.2785 18.5485 22.7799 18.0669 21.7826C17.3686 20.3343 17.1519 19.0759 17.489 18.4348C17.8261 17.8174 19.4876 17.5325 20.9082 17.5325C22.2326 17.5325 23.7977 17.7937 24.1348 18.5297C24.496 19.2895 23.9422 21.8064 23.5087 22.4Z"/></svg>