<svg xmlns="http://www.w3.org/2000/svg" width="266.667" height="266.667" preserveAspectRatio="xMidYMid meet" version="1.0" viewBox="0 0 200 200"><g fill="#000" stroke="none"><path d="M310 1005 l0 -585 23 0 c12 1 83 13 157 28 l135 28 5 309 5 310 134 -297 134 -298 97 0 97 0 134 292 134 293 5 -305 5 -304 158 -32 157 -31 0 589 0 588 -202 -2 -203 -3 -139 -337 c-76 -186 -142 -338 -145 -338 -4 0 -70 153 -146 340 l-139 340 -203 0 -203 0 0 -585z" transform="translate(0.000000,200.000000) scale(0.100000,-0.100000)"/></g></svg>