<svg xmlns="http://www.w3.org/2000/svg" xmlns:xlink="http://www.w3.org/1999/xlink" id="Layer_1" x="0" y="0" version="1.1" viewBox="0 0 250 250" xml:space="preserve" style="enable-background:new 0 0 250 250"><style type="text/css">.st0{fill:url(#SVGID_1_)}.st1{fill:#ffdb2c}</style><g id="logos"><g><g><g><linearGradient id="SVGID_1_" x1="71.623" x2="181.273" y1="40.439" y2="230.358" gradientTransform="matrix(1 0 0 -1 0 250.13)" gradientUnits="userSpaceOnUse"><stop offset="0" style="stop-color:#008fa9"/><stop offset=".109" style="stop-color:#2aa080"/><stop offset=".237" style="stop-color:#57b355"/><stop offset=".303" style="stop-color:#68ba44"/><stop offset=".397" style="stop-color:#75bd40"/><stop offset=".556" style="stop-color:#93c535"/><stop offset=".814" style="stop-color:#cada19"/><stop offset="1" style="stop-color:#f5ea03"/></linearGradient><path d="M60.1,84.3v17c-7.4-7.4-12-17.7-12-29c0-22.8,18.4-41.2,41.2-41.2s41.2,18.4,41.2,41.2 c0,1.8-0.1,3.6-0.4,5.3H66.3C62.9,77.6,60.1,80.6,60.1,84.3z M60.1,157.2v-48.4c-4.1-1.4-8.5-2.1-13-2.1 c-22.8,0-41.2,18.4-41.2,41.2s18.4,41.2,41.2,41.2c17.1,0,31.7-10.4,38-25.2H66.3C62.9,163.9,60.1,160.9,60.1,157.2z M163.6,163.9H88.9c-1.4,4.4-2.1,9.1-2.1,14c0,26,21.1,47.1,47.1,47.1c26,0,47.2-21.1,47.2-47.1c0-11.7-4.2-22.3-11.3-30.6v9.9 C169.8,160.9,167,163.9,163.6,163.9z M188.5,32.4c-26.9,0-49.3,19.5-53.8,45.1h28.8c3.4,0,6.2,3,6.2,6.7v54.1 c5.8,2.1,12.1,3.3,18.7,3.3c30.2,0,54.6-24.5,54.6-54.6S218.7,32.4,188.5,32.4z" class="st0"/></g></g><path d="M89.3,113.5c21,0,38.2-15.6,40.8-35.9H66.3c-3.4,0-6.2,3-6.2,6.7v17C67.5,108.8,77.9,113.5,89.3,113.5z" class="st1"/><path d="M60.1,108.8v48.4c0,3.7,2.8,6.7,6.2,6.7H85c2.1-4.9,3.2-10.3,3.2-16C88.3,129.7,76.5,114.3,60.1,108.8z" class="st1"/><path d="M133.9,130.8c-21.2,0-39.1,14-45,33.2h74.7c3.4,0,6.2-3,6.2-6.7v-9.9C161.2,137.2,148.3,130.8,133.9,130.8z" class="st1"/><path d="M163.6,77.6h-28.8c-0.5,3.1-0.8,6.2-0.8,9.5c0,23.6,15,43.7,35.9,51.3V84.3C169.8,80.6,167,77.6,163.6,77.6z" class="st1"/></g></g></svg>