<svg xmlns="http://www.w3.org/2000/svg" xmlns:xlink="http://www.w3.org/1999/xlink" width="250" height="250" version="1.1" viewBox="0 0 1000 1000"><title>Logo</title><desc>Created with Sketch.</desc><defs><path id="path-1" d="M671.428571,442.857143 C608.310314,442.857143 557.142857,391.689686 557.142857,328.571429 C557.142857,265.453171 608.310314,214.285714 671.428571,214.285714 C734.546829,214.285714 785.714286,265.453171 785.714286,328.571429 C785.714286,391.689686 734.546829,442.857143 671.428571,442.857143 Z M3.42319152,558.571429 C-3.4815197,499.055408 -20.0363569,272.77234 192.087761,106.063876 C404.211879,-60.6445871 643.845974,11.6093237 698.571429,41.2515604 C580.769825,98.0001725 403.243237,230.339208 286.327927,393.010938 C88.9874561,430.248204 3.42319152,558.571429 3.42319152,558.571429 Z M441.428571,996.576808 C441.428571,996.576808 569.751796,911.012544 606.989062,713.672073 C769.660792,596.756763 901.999828,419.230175 958.74844,301.428571 C988.390676,356.154026 1060.64459,595.788121 893.936124,807.912239 C727.22766,1020.03636 500.944592,1003.48152 441.428571,996.576808 Z M20.6619699,642.857143 C20.6619699,642.857143 159.601004,660.789621 214.285714,714.285714 L100,800 C42.0172991,723.217076 20.6619699,642.857143 20.6619699,642.857143 Z M357.142857,979.339774 C357.142857,979.339774 268.113839,955.703125 191.428571,892.857143 L285.714286,785.714286 C342.220982,860.15904 357.142857,942.140723 357.142857,979.339774 Z"/></defs><g id="Page-1" fill="none" fill-rule="evenodd" stroke="none" stroke-width="1"><g id="Logo"><g id="Favicon"><circle id="White" cx="500" cy="500" r="500" fill="#FFF"/><mask id="mask-2" fill="#fff"><use xlink:href="#path-1"/></mask><use id="Combined-Shape" fill="#FFF" xlink:href="#path-1"/><g id="Group-3" mask="url(#mask-2)"><g id="Rectangle" transform="translate(503.135534, 503.535534) rotate(45.000000) translate(-503.135534, -503.535534) translate(-171.864466, 3.535534)"><rect width="1340" height="200" x="0" y="800" fill="red"/><rect width="1340" height="200" x="0" y="600" fill="#FF6E00"/><rect width="1340" height="200" x="0" y="400" fill="#FF9100"/><rect width="1340" height="200" x="0" y="200" fill="#FFC300"/><rect width="1340" height="200" x="0" y="0" fill="#FFE100"/></g></g><circle id="Oval" cx="671.429" cy="328.571" r="114.286" fill="#FFCD00" mask="url(#mask-2)"/></g></g></g></svg>