<svg xmlns="http://www.w3.org/2000/svg" xmlns:xlink="http://www.w3.org/1999/xlink" id="Layer_1" width="250" height="250" viewBox="0 0 164.075 84.487"><defs><style>.cls-1{fill:#ffb27f}.cls-2{fill:#ff944d}.cls-3{fill:#f60}.cls-4{fill:#7ec4e0}.cls-5{fill:#a2d5e9}.cls-6{fill:#474747}.cls-7{fill:#46abd3}</style></defs><path d="m87.997,0L0,31.971l.031,19.676,10.615,4.557,6.86,2.925-.33-4.406c.993.41,4.604,1.898,7.851,3.235v4.417l30.778,13.195-.482-5.005c2.721,1.167,5.867,2.517,7.807,3.349.012.424.006.988-.038,1.723l-.188,3.154,13.023,5.697,52.755-19.476h0s2.263-.835,2.263-.835l3.818-1.41v-.002l28.462-10.52.85-19.743L87.997,0Z" class="cls-6"/><path d="m31.06,59.898l19.523,8.319s-.482-5.007,1.556-4.132c2.031.875,14.626,6.276,14.626,6.276,0,0,1.165.264.86,5.365l8.452,3.697v-13.86l-45.017-19.246v13.582Z" class="cls-2"/><path d="m4.58,34.984l.021,13.51,7.873,3.38s-.368-4.378,1.546-3.554c1.382.594,8.431,3.498,12.266,5.076l.064-9.102-21.771-9.31Z" class="cls-4"/><polygon points="133.148 44.784 133.175 58.341 158.791 48.874 159.377 35.277 133.148 44.784" class="cls-5"/><polygon points="76.077 79.423 128.774 59.91 128.768 46.365 76.077 65.562 76.077 79.423" class="cls-1"/><polygon points="128.768 46.365 107.666 37.25 80.098 47.534 55.933 37.22 31.06 46.316 76.077 65.562 128.768 46.365" class="cls-3"/><polygon points="87.863 4.726 4.58 34.984 26.351 44.294 56.362 33.253 80.507 43.665 103.128 35.29 79.134 24.936 83.706 23.351 133.148 44.784 159.377 35.277 87.863 4.726" class="cls-7"/></svg>