<svg xmlns="http://www.w3.org/2000/svg" width="250" height="250" viewBox="150.473 95.553 95.094 134.717"><defs><linearGradient id="paint0_linear_2625_5904" x1="25.469" x2="-.002" y1="110.861" y2="110.964" gradientTransform="matrix(1, 0, 0, 1, 168.170744, 81.703995)" gradientUnits="userSpaceOnUse"><stop stop-color="#00E6CA"/><stop offset="1" stop-color="#00C4B8"/></linearGradient><linearGradient id="paint1_linear_2625_5904" x1="63.672" x2="0" y1="81.541" y2="82.184" gradientTransform="matrix(1, 0, 0, 1, 168.170744, 81.703995)" gradientUnits="userSpaceOnUse"><stop stop-color="#00E6CA"/><stop offset="1" stop-color="#00C4B8"/></linearGradient><linearGradient id="paint2_linear_2625_5904" x1="63.672" x2="0" y1="52.22" y2="52.863" gradientTransform="matrix(1, 0, 0, 1, 168.170744, 81.703995)" gradientUnits="userSpaceOnUse"><stop stop-color="#00E6CA"/><stop offset="1" stop-color="#00C4B8"/></linearGradient><linearGradient id="paint3_linear_2625_5904" x1="25.469" x2="-.002" y1="110.861" y2="110.964" gradientUnits="userSpaceOnUse"><stop stop-color="#00FFE1"/><stop offset="1" stop-color="#01E0C6"/></linearGradient><linearGradient id="paint4_linear_2625_5904" x1="63.672" x2="0" y1="81.541" y2="82.184" gradientUnits="userSpaceOnUse"><stop stop-color="#00FFE1"/><stop offset="1" stop-color="#01E0C6"/></linearGradient><linearGradient id="paint5_linear_2625_5904" x1="63.672" x2="0" y1="52.22" y2="52.863" gradientUnits="userSpaceOnUse"><stop stop-color="#00FFE1"/><stop offset="1" stop-color="#01E0C6"/></linearGradient><filter id="filter0_d_2625_5904" width="60.453" height="108" x="-2" y="28" color-interpolation-filters="sRGB" filterUnits="userSpaceOnUse"><feFlood flood-opacity="0" result="BackgroundImageFix"/><feColorMatrix in="SourceAlpha" result="hardAlpha" type="matrix" values="0 0 0 0 0 0 0 0 0 0 0 0 0 0 0 0 0 0 127 0"/><feOffset dx="10"/><feGaussianBlur stdDeviation="6"/><feComposite in2="hardAlpha" operator="out"/><feColorMatrix type="matrix" values="0 0 0 0 0 0 0 0 0 0 0 0 0 0 0 0 0 0 0.25 0"/><feBlend in2="BackgroundImageFix" mode="normal" result="effect1_dropShadow_2625_5904"/><feBlend in="SourceGraphic" in2="effect1_dropShadow_2625_5904" mode="normal" result="shape"/></filter><filter id="filter1_f_2625_5904" width="87.547" height="87.547" x="-51.698" y="69.132" color-interpolation-filters="sRGB" filterUnits="userSpaceOnUse"><feFlood flood-opacity="0" result="BackgroundImageFix"/><feBlend in="SourceGraphic" in2="BackgroundImageFix" mode="normal" result="shape"/><feGaussianBlur result="effect1_foregroundBlur_2625_5904" stdDeviation="10"/></filter><filter id="filter2_f_2625_5904" width="87.547" height="87.547" x="-51.698" y="8.906" color-interpolation-filters="sRGB" filterUnits="userSpaceOnUse"><feFlood flood-opacity="0" result="BackgroundImageFix"/><feBlend in="SourceGraphic" in2="BackgroundImageFix" mode="normal" result="shape"/><feGaussianBlur result="effect1_foregroundBlur_2625_5904" stdDeviation="10"/></filter></defs><mask id="mask0_2625_5904" width="64" height="84" x="0" y="40" maskUnits="userSpaceOnUse" style="mask-type:alpha"><path fill="url(#paint3_linear_2625_5904)" d="M0 98.6416H25.3585V111.321C25.3585 118.323 19.6818 124 12.6792 124V124C5.67669 124 0 118.323 0 111.321V98.6416Z"/><path fill="url(#paint4_linear_2625_5904)" d="M0 69.3208H50.717C57.7195 69.3208 63.3962 74.9975 63.3962 82V82C63.3962 89.0026 57.7195 94.6793 50.717 94.6793H0V69.3208Z"/><path fill="url(#paint5_linear_2625_5904)" d="M0 60C0 48.9543 8.9543 40 20 40H50.717C57.7195 40 63.3962 45.6767 63.3962 52.6792V52.6792C63.3962 59.6818 57.7195 65.3585 50.717 65.3585H0V60Z"/></mask><path fill="url(#paint0_linear_2625_5904)" d="M 168.171 180.346 L 193.529 180.346 L 193.529 193.025 C 193.529 200.027 187.853 205.704 180.85 205.704 C 173.848 205.704 168.171 200.027 168.171 193.025 L 168.171 180.346 Z"/><path fill="url(#paint1_linear_2625_5904)" d="M 168.171 151.025 L 218.888 151.025 C 225.89 151.025 231.567 156.702 231.567 163.704 C 231.567 170.707 225.89 176.383 218.888 176.383 L 168.171 176.383 L 168.171 151.025 Z"/><path fill="url(#paint2_linear_2625_5904)" d="M 168.171 141.704 C 168.171 130.658 177.125 121.704 188.171 121.704 L 218.888 121.704 C 225.89 121.704 231.567 127.381 231.567 134.383 C 231.567 141.386 225.89 147.063 218.888 147.063 L 168.171 147.063 L 168.171 141.704 Z"/><g mask="url(#mask0_2625_5904)" transform="matrix(1, 0, 0, 1, 168.17074584960938, 81.70399475097656)"><g filter="url(#filter0_d_2625_5904)"><mask id="mask1_2625_5904" width="64" height="84" x="0" y="40" maskUnits="userSpaceOnUse" style="mask-type:alpha"><path fill="#000" fill-opacity=".1" d="M0 98.6416H25.3585V111.321C25.3585 118.323 19.6818 124 12.6792 124V124C5.67669 124 0 118.323 0 111.321V98.6416Z"/><path fill="#000" fill-opacity=".1" d="M0 60C0 48.9543 8.9543 40 20 40H50.717C57.7195 40 63.3962 45.6767 63.3962 52.6792V52.6792C63.3962 59.6818 57.7195 65.3585 50.717 65.3585H0V60Z"/><path fill="#000" fill-opacity=".1" d="M0 69.3208H50.717C57.7195 69.3208 63.3962 74.9975 63.3962 82V82C63.3962 89.0026 57.7195 94.6793 50.717 94.6793H0V69.3208Z"/></mask><g mask="url(#mask1_2625_5904)"><path fill="#000" fill-opacity=".1" d="M1.33026 18.158C11.2638 8.46307 36.4526 18.158 36.4526 18.158H1.33026C-1.10954 20.5391 -2.62906 24.09 -2.62906 29.2415C-2.62906 55.3672 25.6715 64.8676 25.6715 83.0764C25.6715 100.901 -1.4485 111.898 -2.59186 136.119H36.4526C36.4526 136.119 -2.62906 163.037 -2.62906 137.703C-2.62906 137.169 -2.61648 136.641 -2.59186 136.119H-19.8115L-16.4424 18.158H1.33026Z"/></g></g><g filter="url(#filter1_f_2625_5904)"><circle cx="-7.924" cy="112.906" r="23.774" fill="#00C4B8"/></g><g filter="url(#filter2_f_2625_5904)"><circle cx="-7.924" cy="52.679" r="23.774" fill="#00C4B8"/></g></g></svg>