<svg xmlns="http://www.w3.org/2000/svg" xmlns:xlink="http://www.w3.org/1999/xlink" width="250" height="250" version="1.1" viewBox="0 0 250 250"><defs><linearGradient id="linear0" x1="253.855" x2="107.058" y1="248.282" y2="102.95" gradientTransform="matrix(0.485437,0,0,0.499002,0,0)" gradientUnits="userSpaceOnUse"><stop offset="0" style="stop-color:#3b95c9;stop-opacity:1"/><stop offset="1" style="stop-color:#59b1e3;stop-opacity:1"/></linearGradient><linearGradient id="linear1" x1="266.019" x2="408.411" y1="257.765" y2="407.496" gradientTransform="matrix(0.485437,0,0,0.499002,0,0)" gradientUnits="userSpaceOnUse"><stop offset="0" style="stop-color:#59b1e3;stop-opacity:1"/><stop offset="1" style="stop-color:#9bd0f0;stop-opacity:1"/></linearGradient><linearGradient id="linear2" x1="462.051" x2="170.943" y1="-16.12" y2="139.551" gradientTransform="matrix(0.485437,0,0,0.499002,0,0)" gradientUnits="userSpaceOnUse"><stop offset="0" style="stop-color:#59b1e3;stop-opacity:1"/><stop offset="1" style="stop-color:#9bd0f0;stop-opacity:1"/></linearGradient><linearGradient id="linear3" x1="341.914" x2="50.851" y1="352.945" y2="529.612" gradientTransform="matrix(0.485437,0,0,0.499002,0,0)" gradientUnits="userSpaceOnUse"><stop offset="0" style="stop-color:#59b1e3;stop-opacity:1"/><stop offset="1" style="stop-color:#9bd0f0;stop-opacity:1"/></linearGradient><linearGradient id="linear4" x1="253.96" x2="168.818" y1="405.411" y2="492.024" gradientTransform="matrix(0.485437,0,0,0.499002,0,0)" gradientUnits="userSpaceOnUse"><stop offset="0" style="stop-color:#3b95c9;stop-opacity:1"/><stop offset="1" style="stop-color:#9bd0f0;stop-opacity:0"/></linearGradient></defs><g id="surface1"><path style="stroke:none;fill-rule:nonzero;fill:url(#linear0)" d="M 86.019531 8.402344 L 10.507812 86.023438 L 86.019531 163.644531 L 161.53125 86.023438 Z M 86.019531 8.402344"/><path style="stroke:none;fill-rule:nonzero;fill:url(#linear1)" d="M 161.535156 86.019531 L 86.023438 163.640625 L 161.535156 241.261719 L 237.042969 163.640625 Z M 161.535156 86.019531"/><path style="stroke:none;fill-rule:nonzero;fill:url(#linear2)" d="M 86.019531 8.402344 L 161.53125 86.019531 L 237.042969 8.402344 Z M 86.019531 8.402344"/><path style="stroke:none;fill-rule:nonzero;fill:url(#linear3)" d="M 86.019531 163.644531 L 10.507812 241.261719 L 161.53125 241.261719 Z M 86.019531 163.644531"/><path style="stroke:none;fill-rule:nonzero;fill:url(#linear4)" d="M 86.019531 163.644531 L 10.507812 241.261719 L 161.53125 241.261719 Z M 86.019531 163.644531"/></g></svg>