<svg xmlns="http://www.w3.org/2000/svg" width="256" height="252" preserveAspectRatio="xMidYMid" version="1.1" viewBox="0 0 256 252"><title>stigg</title><defs><radialGradient id="stiggRadialGradient-1" cx="-100.114%" cy="-37.2%" r="279.115%" fx="-100.114%" fy="-37.2%" gradientTransform="translate(-1.001136,-0.372000),scale(1.000000,0.667824),translate(1.001136,0.372000)"><stop offset="0%" stop-color="#FFBE6E"/><stop offset="31.3%" stop-color="#FA9B68"/><stop offset="100%" stop-color="#F0465A"/></radialGradient><radialGradient id="stiggRadialGradient-2" cx="98.183%" cy="107.6%" r="331.879%" fx="98.183%" fy="107.6%" gradientTransform="translate(0.981828,1.076000),scale(0.645755,1.000000),translate(-0.981828,-1.076000)"><stop offset="0%" stop-color="#FFBE6E"/><stop offset="28.2%" stop-color="#FBAB69"/><stop offset="84.8%" stop-color="#F27B5D"/><stop offset="100%" stop-color="#F06E5A"/></radialGradient><linearGradient id="linearGradient-3" x1="-4.9%" x2="77.9%" y1="-41.5%" y2="102%"><stop offset="0%" stop-color="#003EE2"/><stop offset="10.8%" stop-color="#1458E6"/><stop offset="25.9%" stop-color="#2C77EC"/><stop offset="41.8%" stop-color="#3F8EF0"/><stop offset="58.7%" stop-color="#4C9FF3"/><stop offset="77.1%" stop-color="#54A9F5"/><stop offset="100%" stop-color="#57ADF6"/></linearGradient><linearGradient id="linearGradient-4" x1="125.2%" x2="-45.7%" y1="50%" y2="50%"><stop offset="0%" stop-color="#003EE2"/><stop offset="26.8%" stop-color="#1E64E8"/><stop offset="58.8%" stop-color="#3C8BF0"/><stop offset="84.4%" stop-color="#4FA4F4"/><stop offset="100%" stop-color="#57ADF6"/></linearGradient></defs><g><path fill="url(#stiggRadialGradient-1)" d="M213.917245,16.5112263 C197.167754,34.767653 185.418465,48.1909891 178.669377,56.7812348 C172.185784,65.033558 164.086052,76.8740751 154.37018,92.3027862 L168.996166,162.600321 C174.724058,163.309347 196.784956,168.196837 203.039977,168.497524 C245.640944,170.561495 253.630136,155.506347 254.899701,154.942096 C255.140993,153.572302 259.851748,127.575912 247.731484,86.7270932 C240.331481,61.6471611 228.911728,37.9338428 213.917245,16.5112263 Z"/><path fill="url(#stiggRadialGradient-2)" d="M154.355332,92.3027862 L213.902396,16.5112263 C189.540266,7.01249638 163.798508,1.52891152 137.680223,0.274155074 C95.1238025,-1.83436263 70.9797899,8.89383485 69.7102247,9.45437389 C69.4615087,10.8204558 61.9984021,37.5937062 74.0852571,78.4982073 C75.8099167,84.2610445 80.4702787,89.1029887 82.5951982,94.7305513 L154.355332,92.3027862 Z"/><path fill="url(#linearGradient-3)" d="M69.7436343,9.45808607 L1.12029216,96.1189062 C0.867863982,97.481276 -3.86145214,123.39971 8.22540288,164.304211 C13.5632143,182.18659 20.8558996,199.426109 29.9713478,215.710467 L95.7363121,123.834035 C87.9326575,109.097671 81.605993,93.6254449 76.848745,77.6433911 C64.76189,36.73889 69.4912061,10.824168 69.7436343,9.45808607 Z"/><path fill="url(#linearGradient-4)" d="M254.895989,154.94952 C253.630136,155.513771 229.567792,166.245681 186.963112,164.181709 C170.301122,163.342102 153.763162,160.855191 137.591131,156.757351 L63.9043766,242.371337 C81.8843435,247.375422 100.361493,250.380666 119.000538,251.332537 C161.601505,253.396509 185.66385,242.668311 186.933415,242.10406 L254.895989,154.94952 Z"/></g></svg>