<svg xmlns="http://www.w3.org/2000/svg" xmlns:xlink="http://www.w3.org/1999/xlink" id="Livello_1" x="0" y="0" enable-background="new 0 0 250 250" version="1.1" viewBox="0 0 250 250" xml:space="preserve"><path fill="#FEE200" d="M125,91.1l125-28.6V9.9l0,0c0-5.5-4.4-9.9-9.9-9.9H62.5L0,62.5L125,91.1z"/><linearGradient id="SVGID_1_" x1="38.7" x2="38.7" y1="62.5" y2="122.903" gradientUnits="userSpaceOnUse"><stop offset="0" style="stop-color:#de4a01"/><stop offset="1" style="stop-color:#e15900"/></linearGradient><polygon fill="url(#SVGID_1_)" points="62.5 62.5 0 62.5 0 155.1 77.4 123.1"/><linearGradient id="SVGID_2_" x1="156.25" x2="156.25" y1="118.652" y2="68.182" gradientUnits="userSpaceOnUse"><stop offset="0" style="stop-color:#f08b09"/><stop offset="1" style="stop-color:#eb770a"/></linearGradient><polygon fill="url(#SVGID_2_)" points="147.7 141.7 62.5 126.5 62.5 62.5 250 62.5 250 125.7"/><linearGradient id="SVGID_3_" x1="149.4" x2="149.4" y1="199.4" y2="125" gradientUnits="userSpaceOnUse"><stop offset="0" style="stop-color:#d73a00"/><stop offset="1" style="stop-color:#cd2901"/></linearGradient><polygon fill="url(#SVGID_3_)" points="172.6 199.4 48.8 187.9 48.8 125 250 125 250 187.5"/><linearGradient id="SVGID_4_" x1="31.25" x2="31.25" y1="183.403" y2="128.591" gradientUnits="userSpaceOnUse"><stop offset="0" style="stop-color:#be3106"/><stop offset="1" style="stop-color:#ad3007"/></linearGradient><polygon fill="url(#SVGID_4_)" points="62.5 125 0 125 0 208.3 62.5 187.5"/><linearGradient id="SVGID_5_" x1="151.45" x2="151.45" y1="250" y2="187.5" gradientUnits="userSpaceOnUse"><stop offset="0" style="stop-color:#844980"/><stop offset="1" style="stop-color:#703f6c"/></linearGradient><polygon fill="url(#SVGID_5_)" points="250 187.5 187.5 250 62.5 250 52.9 217.3 62.5 187.5"/><linearGradient id="SVGID_6_" x1="31.25" x2="31.25" y1="249.9" y2="187.4" gradientUnits="userSpaceOnUse"><stop offset="0" style="stop-color:#6f3c6d"/><stop offset="1" style="stop-color:#663764"/></linearGradient><path fill="url(#SVGID_6_)" d="M0,187.5v48.7c0,7.6,6.2,13.7,13.8,13.7h48.7l0,0v-62.5l0,0H0V187.5z"/></svg>